<?xml version="1.0" encoding="utf-8"?>
<!-- Generator: Adobe Illustrator 23.0.5, SVG Export Plug-In . SVG Version: 6.00 Build 0)  -->
<svg version="1.1" id="Layer_1" xmlns="http://www.w3.org/2000/svg" xmlns:xlink="http://www.w3.org/1999/xlink" x="0px" y="0px"
	 viewBox="0 0 350 350" style="enable-background:new 0 0 350 350;" xml:space="preserve">
<style type="text/css">
	.st0{fill:url(#SVGID_1_);}
	.st1{fill:#FAA935;}
	.st2{fill:url(#SVGID_2_);}
	.st3{fill:url(#SVGID_3_);}
	.st4{fill:url(#SVGID_4_);}
	.st5{fill:url(#SVGID_5_);}
	.st6{fill:url(#SVGID_6_);}
	.st7{fill:url(#SVGID_7_);}
	.st8{fill:url(#SVGID_8_);}
	.st9{fill:url(#SVGID_9_);}
	.st10{fill:url(#SVGID_10_);}
	.st11{fill:url(#SVGID_11_);}
	.st12{opacity:0.5;fill:#FFFFFF;}
	.st13{fill:#FFFFFF;}
	.st14{fill:#F47523;}
	.st15{fill:url(#SVGID_14_);}
</style>
<linearGradient id="SVGID_1_" gradientUnits="userSpaceOnUse" x1="71.8956" y1="134.47" x2="303.7126" y2="126.4993" gradientTransform="matrix(1 -3.600000e-03 3.600000e-03 1 -0.6038 -0.6003)">
	<stop  offset="0.3087" style="stop-color:#FAA935"/>
	<stop  offset="0.5563" style="stop-color:#FAA735"/>
	<stop  offset="0.6937" style="stop-color:#F9A232"/>
	<stop  offset="0.8041" style="stop-color:#F8982E"/>
	<stop  offset="0.9002" style="stop-color:#F68A29"/>
	<stop  offset="0.9861" style="stop-color:#F47824"/>
	<stop  offset="1" style="stop-color:#F47523"/>
</linearGradient>
<path class="st0" d="M303.6,128.8c0.2,64-51.5,116.2-115.6,116.4c-64,0.2-116.2-51.5-116.4-115.6c-0.2-64,51.5-116.2,115.6-116.4
	C251.3,13,303.4,64.7,303.6,128.8z"/>
<path class="st1" d="M94.6,98.3c50-48.4,129.8-47,178.1,3c48.4,50,47,129.8-3,178.1c-50,48.4-129.8,47-178.1-3
	C43.3,226.5,44.6,146.7,94.6,98.3z"/>
<linearGradient id="SVGID_2_" gradientUnits="userSpaceOnUse" x1="-328.5262" y1="520.4878" x2="-90.8352" y2="520.4878" gradientTransform="matrix(-0.6952 -0.7188 0.7188 -0.6952 -373.0114 393.9815)">
	<stop  offset="0" style="stop-color:#FAA935"/>
	<stop  offset="1" style="stop-color:#F47523"/>
</linearGradient>
<path class="st2" d="M64.3,97.4c47.2-45.6,122.4-44.4,168.1,2.8c45.6,47.2,44.4,122.4-2.8,168c-47.2,45.6-122.4,44.4-168-2.8
	C15.8,218.3,17.1,143.1,64.3,97.4z"/>
<linearGradient id="SVGID_3_" gradientUnits="userSpaceOnUse" x1="-95.8112" y1="532.4672" x2="-66.3311" y2="532.4672" gradientTransform="matrix(-0.6952 -0.7188 0.7188 -0.6952 -373.0114 393.9815)">
	<stop  offset="0.2213" style="stop-color:#FAA935"/>
	<stop  offset="1" style="stop-color:#F47523"/>
</linearGradient>
<path class="st3" d="M55.8,71.5c5.9-5.7,15.2-5.5,20.8,0.3c5.7,5.9,5.5,15.2-0.3,20.8c-5.9,5.7-15.2,5.5-20.8-0.3
	C49.8,86.5,50,77.1,55.8,71.5z"/>
<linearGradient id="SVGID_4_" gradientUnits="userSpaceOnUse" x1="-51.445" y1="590.927" x2="-32.2093" y2="590.927" gradientTransform="matrix(-0.6952 -0.7188 0.7188 -0.6952 -373.0114 393.9815)">
	<stop  offset="0.2958" style="stop-color:#FAA935"/>
	<stop  offset="1" style="stop-color:#F47523"/>
</linearGradient>
<path class="st4" d="M74.1,6.3C78,2.6,84,2.7,87.7,6.5c3.7,3.8,3.6,9.9-0.2,13.6c-3.8,3.7-9.9,3.6-13.6-0.2
	C70.2,16.1,70.3,10,74.1,6.3z"/>
<linearGradient id="SVGID_5_" gradientUnits="userSpaceOnUse" x1="-70.9287" y1="623.6895" x2="-57.6927" y2="623.6895" gradientTransform="matrix(-0.6952 -0.7188 0.7188 -0.6952 -373.0114 393.9815)">
	<stop  offset="0.1533" style="stop-color:#FAA935"/>
	<stop  offset="1" style="stop-color:#F47523"/>
</linearGradient>
<path class="st5" d="M115.4,1.9c2.6-2.5,6.8-2.5,9.4,0.2c2.5,2.6,2.5,6.8-0.2,9.4c-2.6,2.5-6.8,2.5-9.4-0.2
	C112.7,8.6,112.8,4.4,115.4,1.9z"/>
<linearGradient id="SVGID_6_" gradientUnits="userSpaceOnUse" x1="152.7291" y1="581.8785" x2="193.7512" y2="581.8785" gradientTransform="matrix(0.7188 -0.6952 0.6952 0.7188 -222.5557 -36.8659)">
	<stop  offset="0.3659" style="stop-color:#FAA935"/>
	<stop  offset="1" style="stop-color:#F47523"/>
</linearGradient>
<path class="st6" d="M321.2,246.7c7.9,8.1,7.7,21.1-0.5,29c-8.1,7.9-21.1,7.7-29-0.5c-7.9-8.1-7.7-21.1,0.5-29
	S313.4,238.5,321.2,246.7z"/>
<linearGradient id="SVGID_7_" gradientUnits="userSpaceOnUse" x1="30.4855" y1="525.2903" x2="43.8553" y2="525.2903" gradientTransform="matrix(0.7188 -0.6952 0.6952 0.7188 -222.5557 -36.8659)">
	<stop  offset="0.2489" style="stop-color:#FAA935"/>
	<stop  offset="1" style="stop-color:#F47523"/>
</linearGradient>
<path class="st7" d="M174.1,310.2c2.6,2.7,2.5,6.9-0.2,9.5c-2.6,2.6-6.9,2.5-9.5-0.2c-2.6-2.7-2.5-6.9,0.2-9.5
	C167.4,307.5,171.6,307.6,174.1,310.2z"/>
<linearGradient id="SVGID_8_" gradientUnits="userSpaceOnUse" x1="209.3757" y1="577.4802" x2="222.7454" y2="577.4802" gradientTransform="matrix(0.7188 -0.6952 0.6952 0.7188 -222.5557 -36.8659)">
	<stop  offset="0.3682" style="stop-color:#FAA935"/>
	<stop  offset="1" style="stop-color:#F47523"/>
</linearGradient>
<path class="st8" d="M339,223.4c2.6,2.7,2.5,6.9-0.2,9.5c-2.6,2.6-6.9,2.5-9.5-0.2c-2.6-2.7-2.5-6.9,0.2-9.5
	C332.2,220.7,336.5,220.7,339,223.4z"/>
<linearGradient id="SVGID_9_" gradientUnits="userSpaceOnUse" x1="270.4074" y1="469.3056" x2="284.0769" y2="469.3056" gradientTransform="matrix(0.7188 -0.6952 0.6952 0.7188 -222.5557 -36.8659)">
	<stop  offset="0.2597" style="stop-color:#FAA935"/>
	<stop  offset="1" style="stop-color:#F47523"/>
</linearGradient>
<path class="st9" d="M307.9,103c2.6,2.7,2.6,7-0.2,9.7c-2.7,2.6-7,2.6-9.7-0.2c-2.6-2.7-2.6-7,0.2-9.7
	C301,100.2,305.3,100.3,307.9,103z"/>
<linearGradient id="SVGID_10_" gradientUnits="userSpaceOnUse" x1="-25.3055" y1="361.5037" x2="-5.9538" y2="368.0133" gradientTransform="matrix(0.7188 -0.6952 0.6952 0.7188 -222.5557 -36.8659)">
	<stop  offset="0.4307" style="stop-color:#FAA935"/>
	<stop  offset="1" style="stop-color:#F47523"/>
</linearGradient>
<path class="st10" d="M26.6,229.3c3.9,4,3.8,10.5-0.2,14.4c-4,3.9-10.5,3.8-14.4-0.2c-3.9-4-3.8-10.5,0.2-14.4
	C16.3,225.2,22.7,225.3,26.6,229.3z"/>
<linearGradient id="SVGID_11_" gradientUnits="userSpaceOnUse" x1="39.5226" y1="570.9876" x2="65.2133" y2="570.9876" gradientTransform="matrix(0.7188 -0.6952 0.6952 0.7188 -222.5557 -36.8659)">
	<stop  offset="0.3551" style="stop-color:#FAA935"/>
	<stop  offset="1" style="stop-color:#F47523"/>
</linearGradient>
<path class="st11" d="M221.3,328.2c4.9,5.1,4.8,13.2-0.3,18.2c-5.1,4.9-13.2,4.8-18.2-0.3c-4.9-5.1-4.8-13.2,0.3-18.2
	C208.2,323,216.3,323.1,221.3,328.2z"/>
<path class="st12" d="M280.4,188.9c0,64.1-51.9,116-116,116c-64.1,0-116-51.9-116-116c0-64.1,51.9-116,116-116
	C228.5,72.9,280.4,124.8,280.4,188.9z"/>
<path class="st13" d="M303,167.7c0,68.8-57,124.6-127.3,124.6c-70.3,0-127.3-55.8-127.3-124.6s57-124.6,127.3-124.6
	C246,43.1,303,98.9,303,167.7z"/>
<g>
	<defs>
		<path id="SVGID_12_" d="M305.9,165.3c0,71-57.6,128.6-128.6,128.6c-71.1,0-128.6-57.6-128.6-128.6S106.2,36.6,177.2,36.6
			C248.3,36.6,305.9,94.2,305.9,165.3z"/>
	</defs>
	<clipPath id="SVGID_13_">
		<use xlink:href="#SVGID_12_"  style="overflow:visible;"/>
	</clipPath>
	<g style="clip-path:url(#SVGID_13_);">
		
			<image style="overflow:visible;" width="2126" height="1858" xlink:href="my-img.png"  transform="matrix(0.2508 0 0 0.2508 -89.3333 -52.454)">
		</image>
	</g>
</g>
<rect x="-129.2" y="43.1" class="st14" width="34.9" height="39"/>
<rect x="-129.2" y="92.5" class="st1" width="34.9" height="39"/>
<linearGradient id="SVGID_14_" gradientUnits="userSpaceOnUse" x1="-78.6745" y1="86.8424" x2="-43.8182" y2="86.8424">
	<stop  offset="0" style="stop-color:#FAA935"/>
	<stop  offset="1" style="stop-color:#F47523"/>
</linearGradient>
<rect x="-78.7" y="67.3" class="st15" width="34.9" height="39"/>
</svg>
