<?xml version="1.0" encoding="utf-8"?>
<!-- Generator: Adobe Illustrator 23.0.5, SVG Export Plug-In . SVG Version: 6.00 Build 0)  -->
<svg version="1.1" id="Layer_1" xmlns="http://www.w3.org/2000/svg" xmlns:xlink="http://www.w3.org/1999/xlink" x="0px" y="0px"
	 viewBox="0 0 40.4 40.4" style="enable-background:new 0 0 40.4 40.4;" xml:space="preserve">
<path d="M20.2,0C9.1,0,0,9.1,0,20.2s9.1,20.2,20.2,20.2s20.2-9.1,20.2-20.2S31.4,0,20.2,0z M14.8,29.5h-3.9v-14h3.9V29.5z M12.8,14
	L12.8,14c-1.2,0-1.9-0.9-1.9-1.9c0-1.1,0.8-1.9,2-1.9c1.2,0,1.9,0.8,1.9,1.9C14.8,13.1,14,14,12.8,14z M29.5,29.5h-3.9v-7
	c0-2.3-1.1-3.1-2.3-3.1c-1.1,0-2.3,0.8-2.3,3.1v7h-3.9v-14H21v2.3c0.3-0.8,1.5-2.3,3.9-2.3c3.1,0,4.7,2.3,4.7,6.2V29.5z"/>
</svg>
